<?xml version="1.0" ?><svg data-name="Layer 1" id="Layer_1" viewBox="0 0 64 64" xmlns="http://www.w3.org/2000/svg"><defs><style>.cls-1{fill:#72d849;}.cls-2{fill:#677a91;}.cls-3{fill:#83d9f2;}.cls-4{fill:#fedb41;}.cls-5{opacity:0.15;}.cls-6{fill:#ecf1f6;}.cls-7{fill:#bf6830;}</style></defs><title/><path class="cls-1" d="M15.5,35.89a6.69,6.69,0,0,0-4.7,1.93,6.71,6.71,0,0,1,11,2.6A6.72,6.72,0,0,0,15.5,35.89Z"/><path class="cls-1" d="M42.67,33.23H11.4a2.57,2.57,0,0,1-2.57-2.57h0a2.58,2.58,0,0,0,2.57,2.57H42.67Z"/><path class="cls-1" d="M11.4,22h0a2.57,2.57,0,0,0-2.57,2.57h0A2.57,2.57,0,0,1,11.4,22Z"/><path class="cls-1" d="M8.78,42.56a6.71,6.71,0,0,1,2-4.74,6.69,6.69,0,0,0-2,4.74Z"/><path class="cls-1" d="M22.22,42.62h0a6.69,6.69,0,0,0-.37-2.19A6.72,6.72,0,0,1,22.22,42.62Z"/><path class="cls-1" d="M38.82,42.61h0a6.71,6.71,0,0,1,3.86-6.08h0A6.71,6.71,0,0,0,38.82,42.61Z"/><path class="cls-2" d="M15.5,35.89a6.73,6.73,0,0,0-6.72,6.67v.05a6.72,6.72,0,1,0,6.72-6.72Zm0,9.72a3,3,0,0,1-3-3v0a3,3,0,1,1,3,3Z"/><path class="cls-2" d="M46,35.91l-.46,0a6.69,6.69,0,0,0-2.86.64h0a6.72,6.72,0,1,0,9.58,6.08.49.49,0,0,0,0-.12A6.7,6.7,0,0,0,46,35.91Zm-.46,9.7a3,3,0,0,1-3-3v0a3,3,0,1,1,3,3Z"/><path class="cls-3" d="M56.08,21.94H46v6.67H59.38A18.62,18.62,0,0,0,56.08,21.94Z"/><path class="cls-3" d="M42.67,22H11.4a2.57,2.57,0,0,0-2.57,2.57v6.11a2.57,2.57,0,0,0,2.57,2.57H42.67Z"/><path class="cls-3" d="M15.5,39.61a3,3,0,0,0-3,3v0a3,3,0,1,0,3-3Z"/><path class="cls-3" d="M45.54,39.62a3,3,0,0,0-3,3v0a3,3,0,1,0,3-3Z"/><path class="cls-4" d="M54,28.61H46V21.94H56.08a18.73,18.73,0,0,0-13.4-7.22h0c-.47,0-1-.06-1.43-.06H9.56A5.55,5.55,0,0,0,4,20.23V37.06a5.55,5.55,0,0,0,4.78,5.5h0a6.72,6.72,0,0,1,13.44.06h16.6a6.72,6.72,0,0,1,6.72-6.72l.46,0a6.7,6.7,0,0,1,6.25,6.58A8.65,8.65,0,0,0,54,42a9.33,9.33,0,0,0,3.31-2.13A9.17,9.17,0,0,0,60,33.41a19,19,0,0,0-.62-4.8ZM42.67,22V33.23H11.4a2.58,2.58,0,0,1-2.57-2.57h0V24.55h0A2.57,2.57,0,0,1,11.4,22H42.67Z"/><g class="cls-5"><rect height="0.01" width="10.75" x="31.92" y="33.23"/></g><g class="cls-5"><path d="M46,28.61v7.3a6.7,6.7,0,0,1,6.25,6.58A8.65,8.65,0,0,0,54,42V28.61Zm2.65,2.94h0Z"/></g><g class="cls-5"><path d="M54,42a9.33,9.33,0,0,0,3.31-2.13A9.17,9.17,0,0,0,60,33.41a19,19,0,0,0-.62-4.8H54Z"/></g><g class="cls-5"><path d="M45.54,35.89l.46,0v-14H56.08a18.73,18.73,0,0,0-13.4-7.22h0v21.8A6.69,6.69,0,0,1,45.54,35.89Z"/></g><g class="cls-5"><path d="M42.67,22h0V33.23H31.92v9.38h6.9a6.71,6.71,0,0,1,3.86-6.08V14.73c-.47,0-1-.06-1.43-.06H31.92V22Z"/></g><g class="cls-5"><path d="M46,28.61H59.38a18.62,18.62,0,0,0-3.3-6.67H46Z"/></g><g class="cls-5"><rect height="11.26" width="10.75" x="31.92" y="21.98"/></g><g class="cls-5"><rect height="0.01" width="10.75" x="31.92" y="21.97"/></g><g class="cls-5"><path d="M46,35.91l-.46,0a6.69,6.69,0,0,0-2.86.64h0a6.72,6.72,0,1,0,9.58,6.08.49.49,0,0,0,0-.12A6.7,6.7,0,0,0,46,35.91Zm-.46,9.7a3,3,0,0,1-3-3v0a3,3,0,1,1,3,3Z"/></g><g class="cls-5"><path d="M42.68,36.54h0a6.71,6.71,0,0,0-3.86,6.08h0A6.71,6.71,0,0,1,42.68,36.54Z"/></g><g class="cls-5"><path d="M45.54,39.62a3,3,0,0,0-3,3v0a3,3,0,1,0,3-3Z"/></g><path class="cls-6" d="M50.52,32.55H48.65a1,1,0,0,1,0-2h1.88a1,1,0,1,1,0,2Z"/><path class="cls-7" d="M8.49,50.33H8.17a1,1,0,0,1,0-2h.32a1,1,0,0,1,0,2Z"/><path class="cls-7" d="M53.45,50.33h-.32a1,1,0,0,1,0-2h.32a1,1,0,0,1,0,2Z"/><path class="cls-7" d="M60.62,50.33H56.5a1,1,0,0,1,0-2h4.12a1,1,0,0,1,0,2Z"/><path class="cls-7" d="M50.08,50.33H11.54a1,1,0,1,1,0-2H50.08a1,1,0,0,1,0,2Z"/><path class="cls-7" d="M5.12,50.33H3.38a1,1,0,0,1,0-2H5.12a1,1,0,1,1,0,2Z"/></svg>