<svg fill="#000000" xmlns="http://www.w3.org/2000/svg"  viewBox="0 0 64 64" width="256px" height="256px"><path fill="none" stroke="#000000" stroke-linecap="round" stroke-miterlimit="10" stroke-width="2" d="M30.072 53.916L29.897 55.908M25.191 52.923L24.573 54.825M20.658 50.857L19.628 52.572M13.538 43.982L11.861 45.071M11.316 39.524L9.436 40.208M32 60C16.56 60 4 47.44 4 32S16.56 4 32 4s28 12.56 28 28S47.44 60 32 60z"/><path fill="none" stroke="#000000" stroke-miterlimit="10" stroke-width="2" d="M44.336 57.15c-.308-2.025-5.12-31.941-23.152-50.992M13.154 52.701c1.548-2.911 14.919-25.901 46.52-16.425"/><path fill="none" stroke="#000000" stroke-linecap="round" stroke-miterlimit="10" stroke-width="2" d="M4.179 28.826C6.487 29.001 30.61 30.547 45 19.717M48 17.09c.523-.519 1.018-1.069 1.5-1.633"/></svg>